<svg xmlns="http://www.w3.org/2000/svg" width="16" height="16" viewBox="0 0 16 16" fill="none"><path fill-rule="evenodd" clip-rule="evenodd" d="M1 4.849h13v2.08h1.2v2.773H14v2.08H1zm11 1.386H3v4.16h9z" fill="#3592c4"/><path fill="#3592c4" d="M3.174 6.396h8.663v3.839H3.174z"/><path d="M13.637 12.842c-.4-.103-.754-.404-.884-.75a.98.98 0 01-.066-.484c.028-.456.263-.787.707-.995.18-.084.26-.098.568-.098.428 0 .614.07.901.34.25.232.361.487.363.831.003.464-.262.854-.721 1.065-.22.1-.656.146-.868.091z" fill="#3592c4" stroke="#e6e6e6" stroke-width=".004"/></svg>