<svg width="16" height="16" xmlns="http://www.w3.org/2000/svg"><rect x="-13.512" y="7.694" width="10.047" height="5.492" rx=".913" ry=".915" fill="#3592c4" style="stroke-width:.914333;paint-order:stroke fill markers" transform="rotate(-90)"/><path d="M5.885 12.572a2.737 2.737 0 0 0 2.745 2.74h3.662a2.737 2.737 0 0 0 2.746-2.74v-8.22a2.737 2.737 0 0 0-2.746-2.74h-.916V.698h-1.83v.914H8.63a2.737 2.737 0 0 0-2.745 2.74zm.915 0v-8.22c0-1.012.82-1.758 1.83-1.827h3.662c1.014 0 1.83.815 1.83 1.827v8.22a1.825 1.825 0 0 1-1.83 1.827H8.63a1.825 1.825 0 0 1-1.83-1.827z" fill="#3592c4" style="stroke-width:.914333"/></svg>