<svg width="16" height="16" xmlns="http://www.w3.org/2000/svg"><rect x="-13.512" y="7.694" width="3.097" height="5.492" rx=".281" ry=".915" fill="#a4733b" style="stroke-width:.507651;paint-order:stroke fill markers" transform="rotate(-90)"/><path d="M5.885 12.572a2.737 2.737 0 0 0 2.745 2.74h3.662a2.737 2.737 0 0 0 2.746-2.74v-8.22a2.737 2.737 0 0 0-2.746-2.74h-.916V.698h-1.83v.914H8.63a2.737 2.737 0 0 0-2.745 2.74zm.915 0v-8.22c0-1.012.82-1.758 1.83-1.827h3.662c1.014 0 1.83.815 1.83 1.827v8.22a1.825 1.825 0 0 1-1.83 1.827H8.63a1.825 1.825 0 0 1-1.83-1.827z" fill="#a4733b" style="stroke-width:.914333"/><path d="m4.861 8.57-1.832 4.42a.305.467 0 0 1-.265.215.275.42 0 0 1-.086 0 .305.467 0 0 1-.22-.467V9.937H1.184a.61.934 0 0 1-.516-1.433l1.831-4.421a.305.467 0 0 1 .351-.215.305.467 0 0 1 .22.467v2.801h1.276a.61.934 0 0 1 .516 1.433z" fill="#a4733b" style="stroke-width:.377497"/></svg>