<?xml version="1.0" encoding="UTF-8" standalone="no"?>
<svg
        xmlns:dc="http://purl.org/dc/elements/1.1/"
        xmlns:cc="http://creativecommons.org/ns#"
        xmlns:rdf="http://www.w3.org/1999/02/22-rdf-syntax-ns#"
        xmlns:svg="http://www.w3.org/2000/svg"
        xmlns="http://www.w3.org/2000/svg"
        xmlns:sodipodi="http://sodipodi.sourceforge.net/DTD/sodipodi-0.dtd"
        xmlns:inkscape="http://www.inkscape.org/namespaces/inkscape"
        style="enable-background:new 0 0 512 512;"
        version="1.1"
        width="16"
        height="16"
        viewBox="0 0 16 16"
        xml:space="preserve"
        id="svg14"
        sodipodi:docname="battery100.svg"
        inkscape:version="1.0 (4035a4fb49, 2020-05-01)"><metadata
     id="metadata20"><rdf:RDF><cc:Work
         rdf:about=""><dc:format>image/svg+xml</dc:format><dc:type
        rdf:resource="http://purl.org/dc/dcmitype/StillImage" /></cc:Work></rdf:RDF></metadata><defs
        id="defs18" /><sodipodi:namedview
        inkscape:document-rotation="0"
        pagecolor="#ffffff"
        bordercolor="#666666"
        borderopacity="1"
        objecttolerance="10"
        gridtolerance="10"
        guidetolerance="10"
        inkscape:pageopacity="0"
        inkscape:pageshadow="2"
        inkscape:window-width="640"
        inkscape:window-height="480"
        id="namedview16"
        showgrid="false"
        inkscape:zoom="38.634131"
        inkscape:cx="16.747635"
        inkscape:cy="7.6772523"
        inkscape:current-layer="svg14" /><path
        id="path2"
        fill="none"
        d="M 16.023369,0.0576281 V 15.997637 H 0.03109028 V 0.0576281 Z"
        style="stroke-width:0.332627" /><path
        id="path4"
        d="M 13.361377,10.461753 V 9.3559144 h 1.33269 V 6.699246 h -1.33269 V 5.5934077 c 0,-0.4914836 -0.396475,-0.8866629 -0.889571,-0.8866629 H 2.2534062 c -0.4897634,0 -0.8895713,0.3951793 -0.8895713,0.8866629 v 4.8716653 c 0,0.488161 0.3964753,0.886662 0.8895713,0.886662 H 12.471806 c 0.493096,-0.0034 0.889571,-0.398501 0.889571,-0.889982 z"
        style="stroke-width:0.332627"
        fill="#B43636" /><path
        id="path28"
        d="m 12.618784,12.71805 c -0.398956,-0.103374 -0.753574,-0.40441 -0.88428,-0.750667 -0.06458,-0.171092 -0.07834,-0.272946 -0.06532,-0.483646 0.02817,-0.455815 0.263101,-0.786365 0.706818,-0.994486 0.179566,-0.08422 0.26063,-0.09823 0.568237,-0.09821 0.427937,3.3e-5 0.613885,0.0699 0.901123,0.338577 0.249908,0.233759 0.360842,0.488305 0.36268,0.83219 0.0025,0.46445 -0.261643,0.854261 -0.721458,1.064771 -0.219866,0.100658 -0.655233,0.146548 -0.8678,0.09147 z"
        style="fill:#3592c4;stroke:#e6e6e6;stroke-width:0.00377676" /></svg>
