<svg xmlns="http://www.w3.org/2000/svg" viewBox="0 0 16 16" height="16" width="16"><path d="M16.023.058v15.94H.031V.058z" fill="none"/><path fill="#5f8d41" d="M13.361 10.462V9.356h1.333V6.699h-1.333V5.593a.886.886 0 0 0-.89-.886H2.254c-.49 0-.89.395-.89.886v4.872c0 .488.397.887.89.887h10.219a.89.89 0 0 0 .89-.89z"/><path d="M12.619 12.718c-.4-.103-.754-.404-.884-.75a.98.98 0 0 1-.066-.484c.028-.456.263-.787.707-.995.18-.084.26-.098.568-.098.428 0 .614.07.901.339.25.233.361.488.363.832.003.464-.262.854-.721 1.065-.22.1-.656.146-.868.091z" fill="#3592c4" stroke="#e6e6e6" stroke-width=".004"/></svg>