<?xml version="1.0" ?><!DOCTYPE svg  PUBLIC '-//W3C//DTD SVG 1.1//EN'  'http://www.w3.org/Graphics/SVG/1.1/DTD/svg11.dtd'><svg height="512px" style="enable-background:new 0 0 512 512;" version="1.1" viewBox="0 0 512 512" width="512px" xml:space="preserve" xmlns="http://www.w3.org/2000/svg" xmlns:xlink="http://www.w3.org/1999/xlink"><g id="Eco_battery_x2C__energy_x2C__renewable"><g><path d="M120.663,135.042c66.192,0.106,189.775-0.039,270.675-0.152    v-31.343c0-20.583-15.762-37.426-35.018-37.426h-24.146V30.372c0-4.495-3.445-8.172-7.643-8.172H187.597    c-4.191,0-7.635,3.677-7.635,8.172V66.12h-24.279c-19.264,0-35.02,16.844-35.02,37.426V135.042z" style="fill-rule:evenodd;clip-rule:evenodd;fill:#8D959F;"/><polygon points="250.277,228.849 229.26,314.664 250.277,314.664     206.269,441.395 303.838,302.414 271.357,302.414 305.738,228.849   " style="fill-rule:evenodd;clip-rule:evenodd;fill:#FFFFFF;"/><path d="M391.338,134.89c-80.9,0.113-204.483,0.258-270.675,0.152    v317.332c0,20.584,15.756,37.428,35.02,37.428H356.32c19.256,0,35.018-16.844,35.018-37.428V134.89z M229.26,314.664    l21.018-85.815h55.461l-34.381,73.565h32.48l-97.569,138.98l44.008-126.73H229.26z" style="fill-rule:evenodd;clip-rule:evenodd;fill:#7AC143;"/><path d="M179.961,30.372V66.12h152.212V30.372    c0-4.495-3.445-8.172-7.643-8.172H187.597C183.406,22.2,179.961,25.877,179.961,30.372L179.961,30.372z" style="fill-rule:evenodd;clip-rule:evenodd;fill:#787F87;"/></g></g><g id="Layer_1"/></svg>