<svg width="16" height="16" xmlns="http://www.w3.org/2000/svg"><rect x="2" y="5" width="6.418" height="6" rx=".583" ry="1" fill="#738d41" style="paint-order:stroke fill markers"/><path d="M3 3C1.338 3 0 4.338 0 6v4c0 1.662 1.338 3 3 3h9c1.662 0 3-1.338 3-3V9h1V7h-1V6c0-1.662-1.338-3-3-3zm0 1h9c1.108 0 1.925.895 2 2v4c0 1.108-.892 2-2 2H3c-1.108 0-2-.892-2-2V6c0-1.108.892-2 2-2z" fill="#738d41"/><path d="M14.269 14.732c-.4-.103-.754-.404-.884-.75a.98.98 0 0 1-.066-.484c.028-.456.263-.787.707-.995.18-.084.26-.098.568-.098.428 0 .614.07.9.34.25.232.362.487.364.831.003.464-.262.854-.721 1.065-.22.1-.656.146-.868.091z" fill="#3592c4" stroke="#e6e6e6" stroke-width=".004"/></svg>